<?xml version="1.0" encoding="utf-8"?>
<!--  Pages Widget Market  -->
<svg version="1.2" baseProfile="tiny" id="Layer_1" xmlns="http://www.w3.org/2000/svg" xmlns:xlink="http://www.w3.org/1999/xlink"
	 x="0px" y="0px" width="45px" height="45px" viewBox="0 0 45 45" xml:space="preserve">
<path fill="#E1BA53" fill-opacity="0.5" d="M43,0H2H0v2v41v2h2h41h2v-2V2V0H43z M43,43H2V2h41V43z"/>
<g>
	<g>
		<polygon fill="#E1BA53" points="21.275,17 19.102,23.214 17.175,17 15.441,17 13.515,23.214 11.341,17 9.187,17 12.587,28 
			14.46,28 16.308,21.98 18.156,28 20.03,28 23.43,17 		"/>
	</g>
	<g>
		<polygon fill="#E1BA53" points="32.602,17 30.727,17 28.879,23.019 27.032,17 25.157,17 21.758,28 23.913,28 26.085,21.787 
			28.012,28 29.745,28 31.673,21.787 33.847,28 36,28 		"/>
	</g>
</g>
</svg>
